<mxfile host="app.diagrams.net" agent="Mozilla/5.0 (Windows NT 10.0; Win64; x64) AppleWebKit/537.36 (KHTML, like Gecko) Chrome/109.0.0.0 Safari/537.36" version="24.9.1">
  <diagram name="PÃ¡gina-1" id="uyzKtJIayKmU_S6aLGMJ">
    <mxGraphModel dx="367" dy="1913" grid="1" gridSize="10" guides="1" tooltips="1" connect="1" arrows="1" fold="1" page="1" pageScale="1" pageWidth="827" pageHeight="1169" math="0" shadow="0">
      <root>
        <mxCell id="0" />
        <mxCell id="1" parent="0" />
        <mxCell id="KqZLgsnKYEuAChXdqoSk-1" value="Biblioteca" style="swimlane;fontStyle=1;align=center;verticalAlign=top;childLayout=stackLayout;horizontal=1;startSize=26;horizontalStack=0;resizeParent=1;resizeParentMax=0;resizeLast=0;collapsible=1;marginBottom=0;whiteSpace=wrap;html=1;fillColor=default;" vertex="1" parent="1">
          <mxGeometry x="1040" y="-520" width="472" height="300" as="geometry" />
        </mxCell>
        <mxCell id="KqZLgsnKYEuAChXdqoSk-2" value="&lt;div style=&quot;line-height: 160%;&quot;&gt;- usuarios: ArrayList&amp;lt;Usuario&amp;gt;&amp;nbsp;&lt;/div&gt;&lt;div style=&quot;line-height: 160%;&quot;&gt;- livros: ArrayList&amp;lt;Livro&amp;gt;&amp;nbsp;&lt;br&gt;&lt;/div&gt;" style="text;strokeColor=none;fillColor=none;align=left;verticalAlign=middle;spacingLeft=4;spacingRight=4;overflow=hidden;rotatable=0;points=[[0,0.5],[1,0.5]];portConstraint=eastwest;whiteSpace=wrap;html=1;" vertex="1" parent="KqZLgsnKYEuAChXdqoSk-1">
          <mxGeometry y="26" width="472" height="54" as="geometry" />
        </mxCell>
        <mxCell id="KqZLgsnKYEuAChXdqoSk-3" value="" style="line;strokeWidth=1;fillColor=none;align=left;verticalAlign=middle;spacingTop=-1;spacingLeft=3;spacingRight=3;rotatable=0;labelPosition=right;points=[];portConstraint=eastwest;strokeColor=inherit;" vertex="1" parent="KqZLgsnKYEuAChXdqoSk-1">
          <mxGeometry y="80" width="472" height="8" as="geometry" />
        </mxCell>
        <mxCell id="KqZLgsnKYEuAChXdqoSk-4" value="+ &lt;span class=&quot;hljs-title function_ invoke__&quot;&gt;Biblioteca&lt;/span&gt;()&amp;nbsp;&lt;br&gt;+ &lt;span class=&quot;hljs-title function_ invoke__&quot;&gt;addUsuario&lt;/span&gt;(&lt;span class=&quot;hljs-attr&quot;&gt;usuario&lt;/span&gt;: Usuario): &lt;span class=&quot;hljs-keyword&quot;&gt;boolean&lt;/span&gt;&amp;nbsp;&lt;br&gt;+ &lt;span class=&quot;hljs-title function_ invoke__&quot;&gt;addLivro&lt;/span&gt;(&lt;span class=&quot;hljs-attr&quot;&gt;livro&lt;/span&gt;: Livro): &lt;span class=&quot;hljs-keyword&quot;&gt;boolean&lt;/span&gt;&amp;nbsp;&lt;br&gt;+ &lt;span class=&quot;hljs-title function_ invoke__&quot;&gt;buscaLivro&lt;/span&gt;(&lt;span class=&quot;hljs-attr&quot;&gt;livro&lt;/span&gt;: Livro): &lt;span class=&quot;hljs-keyword&quot;&gt;boolean&lt;/span&gt;&amp;nbsp;&lt;br&gt;+ &lt;span class=&quot;hljs-title function_ invoke__&quot;&gt;buscaUsuario&lt;/span&gt;(&lt;span class=&quot;hljs-attr&quot;&gt;usuario&lt;/span&gt;: Usuario): &lt;span class=&quot;hljs-keyword&quot;&gt;boolean&lt;/span&gt;&amp;nbsp;&lt;br&gt;+ &lt;span class=&quot;hljs-title function_ invoke__&quot;&gt;removeUsuario&lt;/span&gt;(&lt;span class=&quot;hljs-attr&quot;&gt;usuario&lt;/span&gt;: Usuario): &lt;span class=&quot;hljs-keyword&quot;&gt;boolean&lt;/span&gt;&amp;nbsp;&lt;br&gt;+ &lt;span class=&quot;hljs-title function_ invoke__&quot;&gt;removeLivro&lt;/span&gt;(&lt;span class=&quot;hljs-attr&quot;&gt;livro&lt;/span&gt;: Livro): &lt;span class=&quot;hljs-keyword&quot;&gt;boolean&lt;/span&gt;&amp;nbsp;&lt;br&gt;+ &lt;span class=&quot;hljs-title function_ invoke__&quot;&gt;emprestimo&lt;/span&gt;(&lt;span class=&quot;hljs-attr&quot;&gt;livro&lt;/span&gt;: Livro, &lt;span class=&quot;hljs-attr&quot;&gt;usuario&lt;/span&gt;: Usuario): &lt;span class=&quot;hljs-keyword&quot;&gt;boolean&lt;/span&gt;&amp;nbsp;&lt;br&gt;+ &lt;span class=&quot;hljs-title function_ invoke__&quot;&gt;devolucao&lt;/span&gt;(&lt;span class=&quot;hljs-attr&quot;&gt;livro&lt;/span&gt;: Livro, &lt;span class=&quot;hljs-attr&quot;&gt;usuario&lt;/span&gt;: Usuario): &lt;span class=&quot;hljs-keyword&quot;&gt;boolean&lt;/span&gt;&amp;nbsp;&lt;br&gt;+ &lt;span class=&quot;hljs-title function_ invoke__&quot;&gt;verificaAddMultaDiariamente&lt;/span&gt;(): &lt;span class=&quot;hljs-keyword&quot;&gt;void&lt;/span&gt;&amp;nbsp;&lt;br&gt;+ &lt;span class=&quot;hljs-title function_ invoke__&quot;&gt;verificaRemoveMultaDiariamente&lt;/span&gt;(): &lt;span class=&quot;hljs-keyword&quot;&gt;void&lt;/span&gt;&amp;nbsp;&lt;br&gt;+ &lt;span class=&quot;hljs-title function_ invoke__&quot;&gt;ordenaLivrosOrdemAlfabetica&lt;/span&gt;(): &lt;span class=&quot;hljs-keyword&quot;&gt;void&lt;/span&gt;&amp;nbsp;&lt;br&gt;+ &lt;span class=&quot;hljs-title function_ invoke__&quot;&gt;getLivros&lt;/span&gt;(): ArrayList&amp;lt;Livro&amp;gt;&amp;nbsp;&lt;br&gt;+ &lt;span class=&quot;hljs-title function_ invoke__&quot;&gt;getUsuarios&lt;/span&gt;(): ArrayList&amp;lt;Usuario&amp;gt;" style="text;strokeColor=none;fillColor=none;align=left;verticalAlign=top;spacingLeft=4;spacingRight=4;overflow=hidden;rotatable=0;points=[[0,0.5],[1,0.5]];portConstraint=eastwest;whiteSpace=wrap;html=1;" vertex="1" parent="KqZLgsnKYEuAChXdqoSk-1">
          <mxGeometry y="88" width="472" height="212" as="geometry" />
        </mxCell>
      </root>
    </mxGraphModel>
  </diagram>
</mxfile>
